<?xml version="1.0" standalone="no"?><!DOCTYPE svg PUBLIC "-//W3C//DTD SVG 1.1//EN" "http://www.w3.org/Graphics/SVG/1.1/DTD/svg11.dtd"><svg t="1533740843703" class="icon" style="" viewBox="0 0 1024 1024" version="1.1" xmlns="http://www.w3.org/2000/svg" p-id="4887" xmlns:xlink="http://www.w3.org/1999/xlink" width="200" height="200"><defs><style type="text/css"></style></defs><path d="M802.816 75.776H220.672c-80.384 0-145.408 65.024-145.408 145.408v581.632c0 80.384 65.024 145.408 145.408 145.408h582.144c80.384 0 145.408-65.024 145.408-145.408V221.184c0.512-80.384-65.024-145.408-145.408-145.408z" fill="#f9bc19" p-id="4888" data-spm-anchor-id="a313x.7781069.0.i17" class=""></path><path d="M597.504 680.96c14.848-1.536 24.064-11.776 26.624-30.72h18.432c-5.632 60.416-28.16 89.6-68.096 86.528H453.632c-31.744 0-48.128-9.728-49.152-28.672v-43.52c0-1.536-0.512-2.56-2.048-4.096l-4.096 4.096c-17.92 17.92-35.84 35.328-53.248 51.712-12.288 15.36-23.552 22.016-32.768 20.48-16.384-1.536-25.6-11.776-26.624-30.72 1.536-17.92 11.776-48.128 30.72-90.624h76.288c-1.536 2.56-3.584 6.656-6.144 12.288-12.288 20.48-21.504 38.4-26.624 53.76-2.56 5.632-1.536 6.656 4.096 4.096 10.752-13.824 28.672-32.768 53.76-57.856 9.728-12.288 18.944-18.432 28.672-18.432 18.944 1.536 29.696 14.336 30.72 39.424v18.432c0 8.192 5.632 13.312 16.384 14.336h103.936zM729.088 342.528v-26.624h-183.296v-30.72H476.16v30.72H294.912v26.624H476.16v26.624H319.488V501.76H476.16v37.376c-86.528 0-150.016-2.048-191.488-6.144l14.336 74.24c84.992-6.656 197.632-23.552 337.408-49.664 8.192 9.728 12.288 15.872 12.288 18.432 0 6.656-4.608 12.288-14.336 16.384l2.048 10.24c48.128-2.56 74.24-17.408 78.336-43.52 2.56-10.752-11.776-30.72-43.008-59.904 20.48-4.096 30.72-16.384 30.72-37.376V408.064c-2.56-15.36-13.824-28.16-32.768-39.424h-123.392v-26.624h182.784zM476.16 474.624H391.68v-26.624H476.16v26.624z m0-51.2H391.68V394.24H476.16v29.184z m69.632 24.576h86.528v12.288c0 9.728-4.608 14.336-14.336 14.336h-72.192v-26.624z m51.712 72.192c8.192 6.656 14.336 12.288 18.432 16.384h-30.72c-17.92 1.536-30.72 2.048-38.912 2.048V501.76h100.864l-49.664 18.432z m20.48-125.952c9.728 0 14.336 5.632 14.336 16.384v12.288h-86.528V394.24h72.192z" fill="#ffffff" p-id="4889" data-spm-anchor-id="a313x.7781069.0.i13" class=""></path><path d="M739.328 701.44c-13.824-28.672-29.696-52.736-47.104-72.192-10.752-12.288-22.016-17.92-32.768-16.384-8.192 0-24.064 4.608-47.104 14.336-10.752 4.096-19.456 6.144-24.576 6.144-8.192 4.096-19.968-12.288-34.816-49.664l-61.952 26.624c17.92 39.936 33.792 57.856 47.104 53.76 5.632 0 14.336-3.584 26.624-10.24 35.84-15.36 57.856-22.528 66.048-22.528 22.016-5.632 32.256 30.208 30.72 107.008l77.824-36.864z" fill="#ffffff" p-id="4890" data-spm-anchor-id="a313x.7781069.0.i16" class=""></path></svg>